<svg id="svg" version="1.1" width="400" height="400" viewBox="0 0 400 400" xmlns="http://www.w3.org/2000/svg" xmlns:xlink="http://www.w3.org/1999/xlink" ><g id="svgg"><path id="path0" d="M229.494 35.630 C 214.627 36.689,197.007 44.078,181.446 55.779 C 160.666 71.404,141.287 95.404,124.051 126.856 C 121.554 131.414,121.379 131.630,120.382 131.408 C 114.843 130.173,108.919 128.500,103.711 126.702 C 83.590 119.754,77.007 120.309,77.445 128.916 C 77.843 136.734,85.543 144.007,101.953 152.064 C 105.928 154.016,109.251 155.666,109.339 155.732 C 109.426 155.798,108.153 158.997,106.510 162.840 C 81.420 221.522,72.517 285.359,84.897 317.800 C 97.549 350.955,132.525 368.607,177.689 364.632 C 207.264 362.029,228.198 348.944,239.063 326.270 C 241.071 322.079,240.727 322.234,243.717 324.167 C 255.912 332.049,279.830 333.568,292.356 327.256 C 309.905 318.415,326.372 289.311,322.431 274.102 C 320.642 267.201,315.447 259.817,311.913 259.154 C 308.000 258.420,305.492 260.602,298.596 270.743 C 284.675 291.216,277.916 296.957,268.385 296.405 C 257.231 295.760,251.005 284.042,243.935 250.391 C 236.970 217.237,226.880 202.230,211.521 202.178 C 199.311 202.137,181.845 222.194,175.749 243.258 L 175.269 244.914 177.608 247.554 C 197.734 270.285,199.716 273.998,199.751 289.063 C 199.792 306.525,194.785 318.126,184.673 323.994 C 175.734 329.182,159.298 324.545,152.691 314.970 C 137.638 293.160,141.882 225.153,161.637 171.608 L 164.258 164.505 167.188 164.252 C 249.906 157.094,291.849 133.002,295.277 90.676 C 298.047 56.467,269.721 32.764,229.494 35.630 M240.857 79.280 C 244.878 81.041,247.246 86.116,247.260 93.004 C 247.295 111.301,226.610 127.276,191.406 136.140 C 186.913 137.272,176.104 139.516,175.940 139.352 C 175.765 139.177,180.523 130.941,184.005 125.391 C 203.786 93.859,228.454 73.851,240.857 79.280 " stroke="none" fill="#fbfbfb" fill-rule="evenodd"></path><path id="path1" d="M0.000 200.000 L 0.000 400.000 200.000 400.000 L 400.000 400.000 400.000 200.000 L 400.000 0.000 200.000 0.000 L 0.000 0.000 0.000 200.000 M250.286 36.715 C 279.919 41.994,297.511 63.094,295.277 90.676 C 291.849 133.002,249.906 157.094,167.188 164.252 L 164.258 164.505 161.637 171.608 C 141.882 225.153,137.638 293.160,152.691 314.970 C 159.298 324.545,175.734 329.182,184.673 323.994 C 194.785 318.126,199.792 306.525,199.751 289.063 C 199.716 273.998,197.734 270.285,177.608 247.554 L 175.269 244.914 175.749 243.258 C 181.845 222.194,199.311 202.137,211.521 202.178 C 226.880 202.230,236.970 217.237,243.935 250.391 C 251.005 284.042,257.231 295.760,268.385 296.405 C 277.916 296.957,284.675 291.216,298.596 270.743 C 305.492 260.602,308.000 258.420,311.913 259.154 C 315.447 259.817,320.642 267.201,322.431 274.102 C 326.372 289.311,309.905 318.415,292.356 327.256 C 279.830 333.568,255.912 332.049,243.717 324.167 C 240.727 322.234,241.071 322.079,239.063 326.270 C 228.198 348.944,207.264 362.029,177.689 364.632 C 132.525 368.607,97.549 350.955,84.897 317.800 C 72.517 285.359,81.420 221.522,106.510 162.840 C 108.153 158.997,109.426 155.798,109.339 155.732 C 109.251 155.666,105.928 154.016,101.953 152.064 C 85.543 144.007,77.843 136.734,77.445 128.916 C 77.007 120.309,83.590 119.754,103.711 126.702 C 108.919 128.500,114.843 130.173,120.382 131.408 C 121.379 131.630,121.554 131.414,124.051 126.856 C 160.303 60.702,205.156 28.674,250.286 36.715 M232.874 78.701 C 221.923 80.740,204.692 95.759,190.527 115.612 C 185.739 122.323,175.529 138.940,175.940 139.352 C 176.104 139.516,186.913 137.272,191.406 136.140 C 226.610 127.276,247.295 111.301,247.260 93.004 C 247.239 82.167,242.037 76.995,232.874 78.701 " stroke="none" fill="#047ccc" fill-rule="evenodd"></path></g></svg>