<svg id="svg" version="1.1" width="400" height="400" viewBox="0 0 400 400" xmlns="http://www.w3.org/2000/svg" xmlns:xlink="http://www.w3.org/1999/xlink" ><g id="svgg"><path id="path0" d="M52.800 15.092 C 52.470 15.217,52.068 15.518,51.906 15.760 C 51.428 16.476,51.533 90.328,52.014 91.226 C 52.406 91.958,52.945 92.000,61.934 92.000 C 68.794 92.000,71.574 92.134,71.920 92.480 C 72.452 93.012,72.573 299.690,72.043 301.600 L 71.765 302.600 62.102 302.800 C 56.125 302.924,52.278 303.161,52.017 303.422 C 51.727 303.713,51.628 315.572,51.698 341.622 L 51.800 379.400 115.800 379.400 L 179.800 379.400 179.905 364.415 C 179.963 356.173,180.158 349.282,180.340 349.100 C 180.690 348.750,182.583 350.481,186.800 355.012 C 190.917 359.434,197.010 364.865,202.000 368.558 C 204.530 370.431,207.366 372.533,208.302 373.230 C 209.811 374.353,211.538 375.335,217.400 378.402 C 218.893 379.184,221.369 380.189,226.200 381.975 C 227.300 382.382,230.000 383.108,232.200 383.589 C 234.400 384.069,237.280 384.740,238.600 385.079 C 245.843 386.939,267.464 386.303,276.600 383.961 C 277.480 383.736,279.278 383.279,280.595 382.946 C 281.912 382.613,283.172 382.194,283.395 382.016 C 283.618 381.838,284.430 381.558,285.200 381.393 C 285.970 381.228,287.227 380.757,287.994 380.347 C 288.761 379.936,289.593 379.600,289.844 379.600 C 290.665 379.600,294.903 377.575,297.015 376.172 C 298.152 375.418,299.186 374.800,299.312 374.800 C 301.411 374.800,317.829 360.737,320.327 356.800 C 320.676 356.250,321.801 354.720,322.827 353.400 C 323.854 352.080,325.302 349.958,326.047 348.685 C 326.791 347.412,327.798 345.702,328.284 344.885 C 328.770 344.068,329.441 342.860,329.776 342.200 C 330.110 341.540,330.568 340.730,330.792 340.400 C 331.017 340.070,331.380 339.350,331.599 338.800 C 331.819 338.250,332.172 337.530,332.384 337.200 C 333.051 336.163,336.000 329.574,336.000 329.120 C 336.000 328.882,336.335 327.948,336.744 327.044 C 337.986 324.303,340.118 317.718,341.615 312.000 C 342.105 310.130,342.742 307.790,343.031 306.800 C 343.320 305.810,343.680 303.920,343.832 302.600 C 343.983 301.280,344.280 299.750,344.491 299.200 C 344.960 297.979,346.223 289.639,347.006 282.600 C 347.324 279.740,347.796 275.780,348.054 273.800 C 349.580 262.123,348.524 225.256,346.209 209.400 C 345.888 207.200,345.515 204.500,345.381 203.400 C 345.246 202.300,344.890 200.590,344.589 199.600 C 344.288 198.610,343.926 196.900,343.784 195.800 C 343.643 194.700,343.275 192.900,342.967 191.800 C 342.375 189.683,341.531 186.433,340.633 182.800 C 340.333 181.590,339.607 179.340,339.019 177.800 C 338.431 176.260,337.806 174.460,337.629 173.800 C 337.328 172.675,336.964 171.770,335.217 167.800 C 334.829 166.920,334.172 165.411,333.756 164.447 C 332.182 160.796,329.156 155.091,327.313 152.299 C 326.261 150.704,325.200 148.950,324.956 148.400 C 324.712 147.850,323.679 146.500,322.661 145.400 C 321.642 144.300,320.807 143.274,320.804 143.121 C 320.786 141.941,312.092 133.073,308.000 130.060 C 306.350 128.845,304.905 127.713,304.788 127.544 C 304.498 127.124,301.068 124.816,300.720 124.807 C 300.566 124.803,299.666 124.278,298.720 123.640 C 296.856 122.382,292.736 120.400,291.987 120.400 C 291.732 120.400,291.046 120.139,290.462 119.821 C 288.364 118.676,285.359 117.507,283.100 116.959 C 281.835 116.651,279.765 116.150,278.500 115.844 C 277.235 115.538,275.722 115.099,275.137 114.868 C 274.553 114.637,272.933 114.333,271.537 114.191 C 270.142 114.050,268.010 113.655,266.800 113.314 C 261.274 111.755,243.662 112.516,235.000 114.687 C 233.680 115.018,231.790 115.447,230.800 115.642 C 229.810 115.836,228.640 116.164,228.200 116.372 C 227.760 116.579,226.500 117.016,225.400 117.343 C 222.280 118.271,220.469 119.036,216.800 120.976 C 214.930 121.964,212.476 123.232,211.346 123.794 C 210.216 124.356,208.596 125.370,207.746 126.048 C 206.896 126.726,205.221 127.933,204.025 128.730 C 202.828 129.526,201.388 130.610,200.825 131.139 C 200.261 131.667,199.155 132.511,198.366 133.013 C 195.863 134.608,185.803 144.139,183.390 147.202 C 182.659 148.129,180.711 149.600,180.214 149.600 C 180.096 149.600,180.000 119.618,180.000 82.974 C 180.000 37.811,179.867 16.098,179.586 15.574 C 179.179 14.813,54.776 14.340,52.800 15.092 M212.569 196.626 C 215.429 196.887,220.729 198.414,222.286 199.425 C 222.773 199.741,223.408 200.000,223.697 200.000 C 224.747 200.000,231.200 207.159,231.200 208.324 C 231.200 208.482,231.537 209.240,231.948 210.008 C 232.360 210.776,232.829 212.213,232.990 213.202 C 233.152 214.191,233.535 215.983,233.842 217.184 C 234.295 218.957,234.400 224.985,234.400 249.200 C 234.400 273.415,234.295 279.443,233.842 281.216 C 233.535 282.417,233.153 284.202,232.993 285.182 C 232.737 286.748,231.886 288.916,230.786 290.800 C 230.594 291.130,229.901 292.320,229.246 293.444 C 228.121 295.377,226.493 296.927,223.345 299.063 C 222.586 299.579,221.762 300.000,221.514 300.000 C 221.266 300.000,220.767 300.268,220.405 300.596 C 216.800 303.858,198.747 303.176,192.400 299.538 C 192.070 299.349,191.350 298.975,190.800 298.707 C 189.553 298.099,186.512 295.286,185.876 294.152 C 180.134 283.920,180.200 284.442,180.200 249.200 C 180.200 220.175,180.502 214.552,182.209 211.800 C 182.482 211.360,182.826 210.481,182.973 209.846 C 184.784 202.074,197.334 195.303,208.200 196.235 C 209.080 196.311,211.046 196.486,212.569 196.626 " stroke="none" fill="#fcfbfb" fill-rule="evenodd"></path><path id="path1" d="M0.000 200.000 L 0.000 400.000 200.000 400.000 L 400.000 400.000 400.000 200.000 L 400.000 0.000 200.000 0.000 L 0.000 0.000 0.000 200.000 M179.586 15.574 C 179.867 16.098,180.000 37.811,180.000 82.974 C 180.000 119.618,180.096 149.600,180.214 149.600 C 180.711 149.600,182.659 148.129,183.390 147.202 C 185.803 144.139,195.863 134.608,198.366 133.013 C 199.155 132.511,200.261 131.667,200.825 131.139 C 201.388 130.610,202.828 129.526,204.025 128.730 C 205.221 127.933,206.896 126.726,207.746 126.048 C 208.596 125.370,210.216 124.356,211.346 123.794 C 212.476 123.232,214.930 121.964,216.800 120.976 C 220.469 119.036,222.280 118.271,225.400 117.343 C 226.500 117.016,227.760 116.579,228.200 116.372 C 228.640 116.164,229.810 115.836,230.800 115.642 C 231.790 115.447,233.680 115.018,235.000 114.687 C 243.662 112.516,261.274 111.755,266.800 113.314 C 268.010 113.655,270.142 114.050,271.537 114.191 C 272.933 114.333,274.553 114.637,275.137 114.868 C 275.722 115.099,277.235 115.538,278.500 115.844 C 279.765 116.150,281.835 116.651,283.100 116.959 C 285.359 117.507,288.364 118.676,290.462 119.821 C 291.046 120.139,291.732 120.400,291.987 120.400 C 292.736 120.400,296.856 122.382,298.720 123.640 C 299.666 124.278,300.566 124.803,300.720 124.807 C 301.068 124.816,304.498 127.124,304.788 127.544 C 304.905 127.713,306.350 128.845,308.000 130.060 C 312.092 133.073,320.786 141.941,320.804 143.121 C 320.807 143.274,321.642 144.300,322.661 145.400 C 323.679 146.500,324.712 147.850,324.956 148.400 C 325.200 148.950,326.261 150.704,327.313 152.299 C 329.156 155.091,332.182 160.796,333.756 164.447 C 334.172 165.411,334.829 166.920,335.217 167.800 C 336.964 171.770,337.328 172.675,337.629 173.800 C 337.806 174.460,338.431 176.260,339.019 177.800 C 339.607 179.340,340.333 181.590,340.633 182.800 C 341.531 186.433,342.375 189.683,342.967 191.800 C 343.275 192.900,343.643 194.700,343.784 195.800 C 343.926 196.900,344.288 198.610,344.589 199.600 C 344.890 200.590,345.246 202.300,345.381 203.400 C 345.515 204.500,345.888 207.200,346.209 209.400 C 348.524 225.256,349.580 262.123,348.054 273.800 C 347.796 275.780,347.324 279.740,347.006 282.600 C 346.223 289.639,344.960 297.979,344.491 299.200 C 344.280 299.750,343.983 301.280,343.832 302.600 C 343.680 303.920,343.320 305.810,343.031 306.800 C 342.742 307.790,342.105 310.130,341.615 312.000 C 340.118 317.718,337.986 324.303,336.744 327.044 C 336.335 327.948,336.000 328.882,336.000 329.120 C 336.000 329.574,333.051 336.163,332.384 337.200 C 332.172 337.530,331.819 338.250,331.599 338.800 C 331.380 339.350,331.017 340.070,330.792 340.400 C 330.568 340.730,330.110 341.540,329.776 342.200 C 329.441 342.860,328.770 344.068,328.284 344.885 C 327.798 345.702,326.791 347.412,326.047 348.685 C 325.302 349.958,323.854 352.080,322.827 353.400 C 321.801 354.720,320.676 356.250,320.327 356.800 C 317.829 360.737,301.411 374.800,299.312 374.800 C 299.186 374.800,298.152 375.418,297.015 376.172 C 294.903 377.575,290.665 379.600,289.844 379.600 C 289.593 379.600,288.761 379.936,287.994 380.347 C 287.227 380.757,285.970 381.228,285.200 381.393 C 284.430 381.558,283.618 381.838,283.395 382.016 C 283.172 382.194,281.912 382.613,280.595 382.946 C 279.278 383.279,277.480 383.736,276.600 383.961 C 267.464 386.303,245.843 386.939,238.600 385.079 C 237.280 384.740,234.400 384.069,232.200 383.589 C 230.000 383.108,227.300 382.382,226.200 381.975 C 221.369 380.189,218.893 379.184,217.400 378.402 C 211.538 375.335,209.811 374.353,208.302 373.230 C 207.366 372.533,204.530 370.431,202.000 368.558 C 197.010 364.865,190.917 359.434,186.800 355.012 C 182.583 350.481,180.690 348.750,180.340 349.100 C 180.158 349.282,179.963 356.173,179.905 364.415 L 179.800 379.400 115.800 379.400 L 51.800 379.400 51.698 341.622 C 51.628 315.572,51.727 303.713,52.017 303.422 C 52.278 303.161,56.125 302.924,62.102 302.800 L 71.765 302.600 72.043 301.600 C 72.573 299.690,72.452 93.012,71.920 92.480 C 71.574 92.134,68.794 92.000,61.934 92.000 C 52.945 92.000,52.406 91.958,52.014 91.226 C 51.533 90.328,51.428 16.476,51.906 15.760 C 52.488 14.888,54.260 14.863,116.286 14.832 C 178.067 14.801,179.179 14.814,179.586 15.574 M203.200 196.449 C 193.169 197.486,184.518 203.217,182.973 209.846 C 182.826 210.481,182.482 211.360,182.209 211.800 C 180.502 214.552,180.200 220.175,180.200 249.200 C 180.200 282.618,180.370 284.322,184.419 291.552 C 184.958 292.516,185.614 293.686,185.876 294.152 C 186.512 295.286,189.553 298.099,190.800 298.707 C 191.350 298.975,192.070 299.349,192.400 299.538 C 198.747 303.176,216.800 303.858,220.405 300.596 C 220.767 300.268,221.266 300.000,221.514 300.000 C 221.762 300.000,222.586 299.579,223.345 299.063 C 226.493 296.927,228.121 295.377,229.246 293.444 C 229.901 292.320,230.594 291.130,230.786 290.800 C 231.886 288.916,232.737 286.748,232.993 285.182 C 233.153 284.202,233.535 282.417,233.842 281.216 C 234.295 279.443,234.400 273.415,234.400 249.200 C 234.400 224.985,234.295 218.957,233.842 217.184 C 233.535 215.983,233.152 214.191,232.990 213.202 C 232.829 212.213,232.360 210.776,231.948 210.008 C 231.537 209.240,231.200 208.482,231.200 208.324 C 231.200 207.159,224.747 200.000,223.697 200.000 C 223.408 200.000,222.773 199.741,222.286 199.425 C 221.799 199.108,220.036 198.406,218.369 197.864 C 215.666 196.985,214.200 196.750,208.200 196.235 C 207.320 196.160,205.070 196.256,203.200 196.449 " stroke="none" fill="#ec4c3c" fill-rule="evenodd"></path></g></svg>