<svg version="1.0" xmlns="http://www.w3.org/2000/svg"
 width="512.000000pt" height="512.000000pt" viewBox="0 0 512.000000 512.000000"
 preserveAspectRatio="xMidYMid meet">
<g transform="translate(0.000000,512.000000) scale(0.100000,-0.100000)"
fill="#000000" stroke="none">
<path d="M0 2560 l0 -2560 2560 0 2560 0 0 2560 0 2560 -2560 0 -2560 0 0
-2560z m3317 2231 c167 -42 276 -103 379 -213 69 -74 104 -131 141 -226 21
-55 27 -90 31 -192 5 -143 -10 -239 -56 -349 -147 -349 -572 -592 -1232 -705
-153 -26 -402 -56 -468 -56 l-38 0 -46 -127 c-118 -328 -188 -651 -217 -998
-45 -537 1 -840 149 -985 42 -41 65 -54 131 -75 91 -28 181 -33 235 -10 46 19
133 108 167 172 38 72 58 176 58 307 0 188 -28 251 -198 450 -65 76 -122 144
-128 152 -22 31 70 238 159 357 69 91 169 187 226 218 34 18 60 23 110 23 207
-2 340 -190 435 -614 109 -488 177 -636 309 -671 56 -15 131 2 188 44 64 45
145 141 251 297 101 147 139 179 192 166 37 -10 80 -57 117 -130 40 -78 48
-172 24 -266 -23 -91 -94 -233 -164 -326 -149 -199 -288 -274 -507 -274 -154
1 -333 42 -408 95 -12 8 -25 15 -29 15 -3 0 -25 -35 -48 -78 -105 -196 -305
-364 -515 -431 -249 -80 -595 -91 -847 -27 -332 84 -573 264 -698 521 -92 187
-126 384 -115 650 22 532 143 1050 369 1573 20 46 36 85 36 86 0 2 -51 29
-112 59 -192 96 -293 186 -319 281 -15 55 2 113 38 127 40 15 171 -7 297 -50
149 -51 268 -79 273 -64 11 31 154 273 228 383 337 504 723 812 1135 905 95
22 358 14 467 -14z"/>
<path d="M2975 4209 c-154 -54 -368 -249 -542 -494 -65 -93 -195 -306 -190
-312 9 -8 240 48 362 88 157 52 284 114 383 188 94 72 142 128 183 215 25 53
30 78 30 134 0 165 -83 231 -226 181z"/>
</g>
</svg>